<svg width="35" height="36" viewBox="0 0 35 36" fill="none" xmlns="http://www.w3.org/2000/svg">
<g id="image">
<rect id="Rectangle 3" y="0.5" width="34.6875" height="34.6875" rx="17.3437" fill="#1C5CFF"/>
<path id="Vector" d="M17 27.5C15.6167 27.5 14.3167 27.2373 13.1 26.712C11.8833 26.1873 10.825 25.475 9.925 24.575C9.025 23.675 8.31267 22.6167 7.788 21.4C7.26267 20.1833 7 18.8833 7 17.5C7 16.1167 7.26267 14.8167 7.788 13.6C8.31267 12.3833 9.025 11.325 9.925 10.425C10.825 9.525 11.8833 8.81233 13.1 8.287C14.3167 7.76233 15.6167 7.5 17 7.5C19.4333 7.5 21.5623 8.26233 23.387 9.787C25.2123 11.3123 26.35 13.225 26.8 15.525H24.75C24.4333 14.3083 23.8627 13.2207 23.038 12.262C22.2127 11.304 21.2 10.5833 20 10.1V10.5C20 11.05 19.8043 11.5207 19.413 11.912C19.021 12.304 18.55 12.5 18 12.5H16V14.5C16 14.7833 15.9043 15.0207 15.713 15.212C15.521 15.404 15.2833 15.5 15 15.5H13V17.5H15V20.5H14L9.2 15.7C9.15 16 9.104 16.3 9.062 16.6C9.02067 16.9 9 17.2 9 17.5C9 19.6833 9.76667 21.5583 11.3 23.125C12.8333 24.6917 14.7333 25.4833 17 25.5V27.5ZM25.4 26.3L22.9 23.8C22.55 24 22.175 24.1667 21.775 24.3C21.375 24.4333 20.95 24.5 20.5 24.5C19.25 24.5 18.1873 24.0627 17.312 23.188C16.4373 22.3127 16 21.25 16 20C16 18.75 16.4373 17.6873 17.312 16.812C18.1873 15.9373 19.25 15.5 20.5 15.5C21.75 15.5 22.8127 15.9373 23.688 16.812C24.5627 17.6873 25 18.75 25 20C25 20.45 24.9333 20.875 24.8 21.275C24.6667 21.675 24.5 22.05 24.3 22.4L26.8 24.9C26.9833 25.0833 27.075 25.3167 27.075 25.6C27.075 25.8833 26.9833 26.1167 26.8 26.3C26.6167 26.4833 26.3833 26.575 26.1 26.575C25.8167 26.575 25.5833 26.4833 25.4 26.3ZM20.5 22.5C21.2 22.5 21.7917 22.2583 22.275 21.775C22.7583 21.2917 23 20.7 23 20C23 19.3 22.7583 18.7083 22.275 18.225C21.7917 17.7417 21.2 17.5 20.5 17.5C19.8 17.5 19.2083 17.7417 18.725 18.225C18.2417 18.7083 18 19.3 18 20C18 20.7 18.2417 21.2917 18.725 21.775C19.2083 22.2583 19.8 22.5 20.5 22.5Z" fill="white"/>
</g>
</svg>
