<svg width="35" height="35" viewBox="0 0 35 35" fill="none" xmlns="http://www.w3.org/2000/svg">
<g id="next_button">
<rect id="Rectangle 3" width="35" height="35" rx="17.3438" fill="#1C5CFF"/>
<path id="Vector" d="M18.2123 23.8675C17.9878 23.5887 17.88 23.2518 17.889 22.8569C17.8987 22.4619 18.0159 22.125 18.2404 21.8463L21.412 17.9083H8.8941C8.57601 17.9083 8.30919 17.7744 8.09363 17.5068C7.87883 17.2401 7.77142 16.9092 7.77142 16.5143C7.77142 16.1193 7.87883 15.788 8.09363 15.5204C8.30919 15.2537 8.57601 15.1203 8.8941 15.1203H21.412L18.2123 11.1475C17.9878 10.8687 17.8755 10.5374 17.8755 10.1536C17.8755 9.77068 17.9878 9.43985 18.2123 9.16105C18.4369 8.88226 18.7037 8.74286 19.0128 8.74286C19.3212 8.74286 19.5876 8.88226 19.8121 9.16105L24.9484 15.5385C25.0607 15.6779 25.1404 15.8289 25.1875 15.9915C25.2339 16.1542 25.2571 16.3284 25.2571 16.5143C25.2571 16.7002 25.2339 16.8744 25.1875 17.037C25.1404 17.1997 25.0607 17.3507 24.9484 17.4901L19.7841 23.9024C19.5783 24.1579 19.3212 24.2857 19.0128 24.2857C18.7037 24.2857 18.4369 24.1463 18.2123 23.8675Z" fill="white"/>
</g>
</svg>
