<svg width="18" height="18" viewBox="0 0 18 18" fill="none" xmlns="http://www.w3.org/2000/svg">
<g id="SearchImage">
<path id="Vector" d="M13.3501 12.2214L16.3701 15.2407L15.3723 16.2384L12.3531 13.2185C11.2297 14.119 9.83238 14.6088 8.39256 14.6068C4.88962 14.6068 2.04666 11.7638 2.04666 8.2609C2.04666 4.75796 4.88962 1.915 8.39256 1.915C11.8955 1.915 14.7385 4.75796 14.7385 8.2609C14.7405 9.70072 14.2507 11.098 13.3501 12.2214ZM11.9357 11.6983C12.8305 10.778 13.3303 9.54449 13.3283 8.2609C13.3283 5.53428 11.1192 3.3252 8.39256 3.3252C5.66594 3.3252 3.45686 5.53428 3.45686 8.2609C3.45686 10.9875 5.66594 13.1966 8.39256 13.1966C9.67615 13.1986 10.9097 12.6989 11.8299 11.804L11.9357 11.6983Z" fill="#888888"/>
</g>
</svg>
